<svg preserveAspectRatio="none" width="100%" height="100%" overflow="visible" style="display: block;" viewBox="0 0 20 20" fill="none" xmlns="http://www.w3.org/2000/svg">
<g id="Layer_x0020_1">
<path id="Vector" d="M20 10C20 4.47757 15.5224 0 10 0C4.47757 0 0 4.47757 0 10C0 14.9909 3.65631 19.1281 8.43763 19.8791V12.8913H5.8979V10H8.43763V7.79637C8.43763 5.2904 9.93109 3.90522 12.2149 3.90522C13.309 3.90522 14.4537 4.10069 14.4537 4.10069V6.56166H13.1922C11.9505 6.56166 11.5624 7.3323 11.5624 8.12403V10H14.3355L13.8926 12.8913H11.5624V19.8791C16.3437 19.1295 20 14.9923 20 10Z" fill="var(--fill-0, #1977F3)"/>
<path id="Vector_2" d="M13.8924 12.8913L14.3354 10H11.5622V8.12407C11.5622 7.33374 11.9489 6.5617 13.1921 6.5617H14.4535V4.10072C14.4535 4.10072 13.3088 3.90525 12.2147 3.90525C9.93093 3.90525 8.43747 5.28902 8.43747 7.79641V10H5.89775V12.8913H8.43747V19.8791C8.94654 19.9593 9.46827 20 9.99984 20C10.5314 20 11.0531 19.9578 11.5622 19.8791V12.8913H13.8924Z" fill="var(--fill-0, #FEFEFE)"/>
</g>
</svg>
