<svg preserveAspectRatio="none" width="100%" height="100%" overflow="visible" style="display: block;" viewBox="0 0 20 20.0002" fill="none" xmlns="http://www.w3.org/2000/svg">
<g id="Group">
<path id="Vector" d="M10.0033 0.000183162C5.82836 0.000183162 4.60735 0.00449176 4.37001 0.0241831C3.51325 0.0954196 2.98013 0.230356 2.39931 0.519604C1.9517 0.741938 1.59869 0.999649 1.25029 1.36091C0.6158 2.01974 0.231256 2.83026 0.0920485 3.79373C0.0243722 4.26146 0.00468074 4.35685 0.000681995 6.74598C-0.000852494 7.54236 0.000681995 8.59045 0.000681995 9.99626C0.000681995 14.1689 0.00529299 15.389 0.0252943 15.626C0.0945125 16.4599 0.225254 16.9845 0.502127 17.5584C1.03126 18.657 2.04183 19.4817 3.23238 19.7894C3.64462 19.8956 4.09991 19.954 4.68442 19.9817C4.93207 19.9925 7.4562 20.0002 9.98188 20.0002C12.5076 20.0002 15.0332 19.9971 15.2747 19.9848C15.9515 19.9529 16.3445 19.9002 16.7791 19.7879C17.9773 19.4786 18.9694 18.6662 19.5093 17.5523C19.7808 16.9922 19.9185 16.4476 19.9808 15.6572C19.9943 15.4849 20 12.7374 20 9.99365C20 7.24941 19.9938 4.50702 19.9803 4.3347C19.9172 3.53156 19.7796 2.99151 19.4993 2.42069C19.2694 1.95342 19.014 1.60446 18.6433 1.24768C17.9818 0.615619 17.1727 0.230969 16.2086 0.0918821C15.7414 0.0243344 15.6484 0.00433308 13.258 0.000183162H10.0033Z" fill="url(#paint0_radial_0_62)"/>
<path id="Vector_2" d="M10.0033 0.000183162C5.82836 0.000183162 4.60735 0.00449176 4.37001 0.0241831C3.51325 0.0954196 2.98013 0.230356 2.39931 0.519604C1.9517 0.741938 1.59869 0.999649 1.25029 1.36091C0.6158 2.01974 0.231256 2.83026 0.0920485 3.79373C0.0243722 4.26146 0.00468074 4.35685 0.000681995 6.74598C-0.000852494 7.54236 0.000681995 8.59045 0.000681995 9.99626C0.000681995 14.1689 0.00529299 15.389 0.0252943 15.626C0.0945125 16.4599 0.225254 16.9845 0.502127 17.5584C1.03126 18.657 2.04183 19.4817 3.23238 19.7894C3.64462 19.8956 4.09991 19.954 4.68442 19.9817C4.93207 19.9925 7.4562 20.0002 9.98188 20.0002C12.5076 20.0002 15.0332 19.9971 15.2747 19.9848C15.9515 19.9529 16.3445 19.9002 16.7791 19.7879C17.9773 19.4786 18.9694 18.6662 19.5093 17.5523C19.7808 16.9922 19.9185 16.4476 19.9808 15.6572C19.9943 15.4849 20 12.7374 20 9.99365C20 7.24941 19.9938 4.50702 19.9803 4.3347C19.9172 3.53156 19.7796 2.99151 19.4993 2.42069C19.2694 1.95342 19.014 1.60446 18.6433 1.24768C17.9818 0.615619 17.1727 0.230969 16.2086 0.0918821C15.7414 0.0243344 15.6484 0.00433308 13.258 0.000183162H10.0033Z" fill="url(#paint1_radial_0_62)"/>
<path id="Vector_3" d="M10.0033 0.000183162C5.82836 0.000183162 4.60735 0.00449176 4.37001 0.0241831C3.51325 0.0954196 2.98013 0.230356 2.39931 0.519604C1.9517 0.741938 1.59869 0.999649 1.25029 1.36091C0.6158 2.01974 0.231256 2.83026 0.0920485 3.79373C0.0243722 4.26146 0.00468074 4.35685 0.000681995 6.74598C-0.000852494 7.54236 0.000681995 8.59045 0.000681995 9.99626C0.000681995 14.1689 0.00529299 15.389 0.0252943 15.626C0.0945125 16.4599 0.225254 16.9845 0.502127 17.5584C1.03126 18.657 2.04183 19.4817 3.23238 19.7894C3.64462 19.8956 4.09991 19.954 4.68442 19.9817C4.93207 19.9925 7.4562 20.0002 9.98188 20.0002C12.5076 20.0002 15.0332 19.9971 15.2747 19.9848C15.9515 19.9529 16.3445 19.9002 16.7791 19.7879C17.9773 19.4786 18.9694 18.6662 19.5093 17.5523C19.7808 16.9922 19.9185 16.4476 19.9808 15.6572C19.9943 15.4849 20 12.7374 20 9.99365C20 7.24941 19.9938 4.50702 19.9803 4.3347C19.9172 3.53156 19.7796 2.99151 19.4993 2.42069C19.2694 1.95342 19.014 1.60446 18.6433 1.24768C17.9818 0.615619 17.1727 0.230969 16.2086 0.0918821C15.7414 0.0243344 15.6484 0.00433308 13.258 0.000183162H10.0033Z" fill="url(#paint2_radial_0_62)"/>
<path id="Vector_4" d="M10.0033 0.000183162C5.82836 0.000183162 4.60735 0.00449176 4.37001 0.0241831C3.51325 0.0954196 2.98013 0.230356 2.39931 0.519604C1.9517 0.741938 1.59869 0.999649 1.25029 1.36091C0.6158 2.01974 0.231256 2.83026 0.0920485 3.79373C0.0243722 4.26146 0.00468074 4.35685 0.000681995 6.74598C-0.000852494 7.54236 0.000681995 8.59045 0.000681995 9.99626C0.000681995 14.1689 0.00529299 15.389 0.0252943 15.626C0.0945125 16.4599 0.225254 16.9845 0.502127 17.5584C1.03126 18.657 2.04183 19.4817 3.23238 19.7894C3.64462 19.8956 4.09991 19.954 4.68442 19.9817C4.93207 19.9925 7.4562 20.0002 9.98188 20.0002C12.5076 20.0002 15.0332 19.9971 15.2747 19.9848C15.9515 19.9529 16.3445 19.9002 16.7791 19.7879C17.9773 19.4786 18.9694 18.6662 19.5093 17.5523C19.7808 16.9922 19.9185 16.4476 19.9808 15.6572C19.9943 15.4849 20 12.7374 20 9.99365C20 7.24941 19.9938 4.50702 19.9803 4.3347C19.9172 3.53156 19.7796 2.99151 19.4993 2.42069C19.2694 1.95342 19.014 1.60446 18.6433 1.24768C17.9818 0.615619 17.1727 0.230969 16.2086 0.0918821C15.7414 0.0243344 15.6484 0.00433308 13.258 0.000183162H10.0033Z" fill="url(#paint3_radial_0_62)"/>
<path id="Vector_5" d="M10.004 2.56777C7.98445 2.56777 7.73101 2.57659 6.93781 2.61266C6.14617 2.64889 5.60581 2.77412 5.133 2.95788C4.64392 3.14767 4.22904 3.40155 3.81572 3.81472C3.40209 4.22775 3.14801 4.64231 2.95746 5.13087C2.7731 5.60349 2.64762 6.1436 2.61199 6.93435C2.57652 7.72695 2.56722 7.98036 2.56722 9.9984C2.56722 12.0164 2.57621 12.2689 2.61214 13.0615C2.64855 13.8526 2.77388 14.3925 2.95761 14.865C3.1477 15.3537 3.40177 15.7683 3.81525 16.1813C4.22843 16.5946 4.6433 16.8491 5.13207 17.0389C5.60519 17.2227 6.14571 17.3479 6.93719 17.3841C7.73039 17.4202 7.98368 17.429 10.0031 17.429C12.0227 17.429 12.2754 17.4202 13.0686 17.3841C13.8603 17.3479 14.4012 17.2227 14.8744 17.0389C15.3633 16.8491 15.7775 16.5946 16.1907 16.1813C16.6043 15.7683 16.8584 15.3537 17.049 14.8652C17.2318 14.3925 17.3573 13.8524 17.3944 13.0617C17.4301 12.2691 17.4394 12.0164 17.4394 9.9984C17.4394 7.98036 17.4301 7.72711 17.3944 6.9345C17.3573 6.14345 17.2318 5.60349 17.049 5.13103C16.8584 4.64231 16.6043 4.22774 16.1907 3.81472C15.7771 3.40139 15.3634 3.14751 14.8739 2.95788C14.3998 2.77412 13.8592 2.64889 13.0675 2.61266C12.2743 2.57659 12.0218 2.56777 10.0017 2.56777H10.004ZM9.3369 3.90683C9.53489 3.90652 9.75581 3.90683 10.004 3.90683C11.9894 3.90683 12.2248 3.91395 13.0088 3.94956C13.7338 3.98269 14.1273 4.10374 14.3895 4.20545C14.7365 4.34013 14.9839 4.50113 15.244 4.7612C15.5043 5.02127 15.6654 5.26896 15.8005 5.61572C15.9022 5.87734 16.0235 6.27054 16.0565 6.99503C16.0922 7.77834 16.0999 8.01365 16.0999 9.9967C16.0999 11.9797 16.0922 12.2151 16.0565 12.9984C16.0234 13.7228 15.9022 14.1161 15.8005 14.3777C15.6657 14.7244 15.5043 14.9714 15.244 15.2313C14.9837 15.4913 14.7366 15.6523 14.3895 15.787C14.1276 15.8892 13.7338 16.0099 13.0088 16.0431C12.2249 16.0787 11.9894 16.0864 10.004 16.0864C8.01838 16.0864 7.78306 16.0787 6.99916 16.0431C6.27414 16.0096 5.88065 15.8886 5.61836 15.7869C5.27134 15.6522 5.02347 15.4912 4.76321 15.2311C4.50294 14.971 4.34183 14.724 4.20673 14.377C4.10495 14.1154 3.98365 13.7222 3.95065 12.9977C3.91502 12.2144 3.90789 11.9791 3.90789 9.99484C3.90789 8.01055 3.91502 7.77648 3.95065 6.99317C3.98381 6.26868 4.10495 5.87548 4.20673 5.61355C4.34151 5.26679 4.50294 5.0191 4.76321 4.75903C5.02347 4.49896 5.27134 4.33796 5.61836 4.20297C5.88049 4.1008 6.27414 3.98006 6.99916 3.94677C7.68515 3.91581 7.95099 3.90652 9.3369 3.90497L9.3369 3.90683ZM13.9733 5.14062C13.4807 5.14062 13.081 5.53956 13.081 6.03199C13.081 6.52427 13.4807 6.92367 13.9733 6.92367C14.466 6.92367 14.8657 6.52427 14.8657 6.03199C14.8657 5.53971 14.466 5.14032 13.9733 5.14032L13.9733 5.14062ZM10.004 6.18246C7.89506 6.18246 6.18522 7.89104 6.18522 9.9984C6.18522 12.1058 7.89506 13.8136 10.004 13.8136C12.1129 13.8136 13.8221 12.1058 13.8221 9.9984C13.8221 7.89104 12.1128 6.18246 10.0038 6.18246H10.004ZM10.004 7.52152C11.3729 7.52152 12.4827 8.63039 12.4827 9.9984C12.4827 11.3663 11.3729 12.4753 10.004 12.4753C8.63496 12.4753 7.52527 11.3663 7.52527 9.9984C7.52527 8.63039 8.63496 7.52152 10.004 7.52152Z" fill="var(--fill-0, white)"/>
</g>
<defs>
<radialGradient id="paint0_radial_0_62" cx="0" cy="0" r="1" gradientTransform="matrix(-12.2991 3.46863 -2.49902 -8.8609 19.3542 9.37443)" gradientUnits="userSpaceOnUse">
<stop stop-color="#FF005F"/>
<stop offset="1" stop-color="#FC01D8"/>
</radialGradient>
<radialGradient id="paint1_radial_0_62" cx="0" cy="0" r="1" gradientUnits="userSpaceOnUse" gradientTransform="translate(5.31235 21.5406) rotate(-90) scale(15.9644 16.9379)">
<stop stop-color="#FFCC00"/>
<stop offset="0.1242" stop-color="#FFCC00"/>
<stop offset="0.5672" stop-color="#FE4A05"/>
<stop offset="0.6942" stop-color="#FF0F3F"/>
<stop offset="1" stop-color="#FE0657" stop-opacity="0"/>
</radialGradient>
<radialGradient id="paint2_radial_0_62" cx="0" cy="0" r="1" gradientTransform="matrix(3.31364 -5.7095 7.43312 4.314 10.5054 19.7181)" gradientUnits="userSpaceOnUse">
<stop stop-color="#FFCC00"/>
<stop offset="1" stop-color="#FFCC00" stop-opacity="0"/>
</radialGradient>
<radialGradient id="paint3_radial_0_62" cx="0" cy="0" r="1" gradientTransform="matrix(-12.1641 3.4252 -1.16666 -4.14438 2.71357 0.814577)" gradientUnits="userSpaceOnUse">
<stop stop-color="#780CFF"/>
<stop offset="1" stop-color="#820BFF" stop-opacity="0"/>
</radialGradient>
</defs>
</svg>
