<svg preserveAspectRatio="none" width="100%" height="100%" overflow="visible" style="display: block;" viewBox="0 0 20 17" fill="none" xmlns="http://www.w3.org/2000/svg">
<g id="Symbol.svg" clip-path="url(#clip0_0_73)">
<path id="Path 2525" d="M19.0188 15.9026C19.0617 15.9031 19.1042 15.8947 19.1438 15.878C19.1833 15.8614 19.219 15.8368 19.2486 15.8059C19.2782 15.7749 19.3011 15.7382 19.3159 15.698C19.3307 15.6579 19.337 15.6151 19.3346 15.5724C19.3346 15.3382 19.1928 15.2263 18.9021 15.2263H18.4323V16.4525H18.609V15.918H18.8261L18.8311 15.9245L19.1681 16.4525H19.357L18.9945 15.906L19.0188 15.9026ZM18.8144 15.7798H18.6095V15.3652H18.8692C19.0034 15.3652 19.1563 15.3871 19.1563 15.5622C19.1563 15.7637 19.0015 15.7798 18.8133 15.7798" fill="var(--fill-0, #0A66C2)"/>
<path id="Path 2520" d="M14.4088 14.3661H11.903V10.4537C11.903 9.52078 11.8863 8.3198 10.5998 8.3198C9.29471 8.3198 9.09503 9.33627 9.09503 10.3858V14.3658H6.58928V6.32043H8.99479V7.41991H9.02847C9.26921 7.00954 9.61708 6.67194 10.035 6.44308C10.453 6.21423 10.9254 6.10268 11.4019 6.12031C13.9416 6.12031 14.4098 7.7858 14.4098 9.95251L14.4088 14.3661ZM3.76198 5.22068C3.47438 5.22074 3.19322 5.13576 2.95406 4.9765C2.71491 4.81724 2.5285 4.59085 2.4184 4.32596C2.30829 4.06107 2.27943 3.76958 2.33549 3.48835C2.39155 3.20711 2.53 2.94876 2.73332 2.74597C2.93665 2.54319 3.19572 2.40506 3.47778 2.34907C3.75984 2.29308 4.05221 2.32174 4.31794 2.43142C4.58366 2.5411 4.8108 2.72688 4.97062 2.96526C5.13044 3.20365 5.21578 3.48393 5.21583 3.77066C5.21586 3.96105 5.17828 4.14958 5.10524 4.32548C5.03219 4.50139 4.92512 4.66123 4.79012 4.79587C4.65512 4.93052 4.49482 5.03734 4.31842 5.11023C4.14201 5.18312 3.95293 5.22065 3.76198 5.22068ZM5.01484 14.3661H2.50649V6.32043H5.01484V14.3661ZM15.658 0.00118475H1.24737C0.920286 -0.0024953 0.605105 0.123441 0.371109 0.35132C0.137113 0.579199 0.00344442 0.890376 -0.000547418 1.21647V15.6435C0.0033078 15.9698 0.136898 16.2812 0.370886 16.5093C0.604874 16.7374 0.920123 16.8636 1.24737 16.8601H15.658C15.9859 16.8642 16.302 16.7384 16.5369 16.5103C16.7718 16.2822 16.9063 15.9705 16.9109 15.6435V1.21543C16.9062 0.888689 16.7716 0.577157 16.5367 0.349284C16.3018 0.121411 15.9857 -0.00416597 15.658 0.000143392" fill="var(--fill-0, #0A66C2)"/>
<path id="Path 2526" d="M18.8357 14.6794C18.5309 14.6824 18.2396 14.8055 18.0255 15.022C17.8115 15.2385 17.6922 15.5307 17.6937 15.8346C17.6951 16.1386 17.8173 16.4296 18.0334 16.644C18.2495 16.8584 18.5419 16.9788 18.8468 16.9788C19.1517 16.9788 19.4442 16.8584 19.6603 16.644C19.8764 16.4296 19.9985 16.1386 20 15.8346C20.0014 15.5307 19.8821 15.2385 19.6681 15.022C19.4541 14.8055 19.1628 14.6824 18.8579 14.6794H18.8357ZM18.8357 16.8472C18.6358 16.8505 18.4393 16.7946 18.2712 16.6866C18.1031 16.5786 17.9709 16.4234 17.8913 16.2404C17.8117 16.0575 17.7883 15.8552 17.824 15.659C17.8598 15.4628 17.9531 15.2816 18.0921 15.1383C18.2311 14.995 18.4097 14.896 18.6051 14.8538C18.8006 14.8117 19.0042 14.8283 19.1903 14.9015C19.3763 14.9747 19.5363 15.1013 19.6502 15.2652C19.7641 15.4291 19.8266 15.623 19.8299 15.8224C19.8299 15.8281 19.8299 15.8336 19.8299 15.8393C19.8355 16.1008 19.7367 16.3539 19.5552 16.5428C19.3737 16.7317 19.1244 16.841 18.8621 16.8467H18.836" fill="var(--fill-0, #0A66C2)"/>
</g>
<defs>
<clipPath id="clip0_0_73">
<rect width="20" height="17" fill="white"/>
</clipPath>
</defs>
</svg>
